<svg width="454" height="233" viewBox="0 0 454 233" fill="none" xmlns="http://www.w3.org/2000/svg">
<path d="M225.8 188C178.1 188 139.4 198.1 139.4 210.4C139.4 222.8 178.1 232.9 225.8 232.9C268.3 232.9 303.7 224.9 310.9 214.4C311.8 213.1 312.2 211.8 312.2 210.5C312.2 198.1 273.5 188 225.8 188ZM225.8 213.6C198.3 213.6 176.1 210.3 176.1 206.2C176.1 206.2 176.1 206.1 176.1 205.9C176.1 205.8 176.1 205.8 176.2 205.7C176.2 205.7 176.2 205.6 176.3 205.6C178.2 201.8 199.7 198.8 225.8 198.8C251 198.8 271.8 201.6 275 205.2C275.3 205.5 275.4 205.8 275.4 206.1V206.2C275.5 210.3 253.2 213.6 225.8 213.6Z" fill="#301402"/>
<path d="M122.2 195.1H39.0001C36.9001 195.1 34.8001 195.8 33.1001 197.1L1.10011 222.2C-0.399895 223.4 0.40011 225.8 2.30011 225.8H90.2001C92.4001 225.8 94.6001 224.9 96.2001 223.4L123.1 197.4C124 196.6 123.4 195.1 122.2 195.1Z" fill="#FFD8BE"/>
<path d="M452.3 195.1H369C366.9 195.1 364.8 195.8 363.1 197.1L331.1 222.2C329.6 223.4 330.4 225.8 332.3 225.8H420.2C422.4 225.8 424.6 224.9 426.2 223.4L453.1 197.4C454.1 196.6 453.5 195.1 452.3 195.1Z" fill="#FFD8BE"/>
<path d="M225.8 183.9C178.1 183.9 139.4 194 139.4 206.3C139.4 218.7 178.1 228.8 225.8 228.8C268.3 228.8 303.7 220.8 310.9 210.3C311.8 209 312.2 207.7 312.2 206.4C312.2 194 273.5 183.9 225.8 183.9ZM225.8 209.5C198.3 209.5 176.1 206.2 176.1 202.1C176.1 202.1 176.1 202 176.1 201.8C176.1 201.7 176.1 201.7 176.2 201.6C176.2 201.6 176.2 201.5 176.3 201.5C178.2 197.7 199.7 194.7 225.8 194.7C251 194.7 271.8 197.5 275 201.1C275.3 201.4 275.4 201.7 275.4 202V202.1C275.5 206.2 253.2 209.5 225.8 209.5Z" fill="#FFB583"/>
<path d="M310.9 210.3C303.7 220.8 268.4 228.8 225.8 228.8C178.1 228.8 139.4 218.7 139.4 206.3C139.4 206.3 154.4 224.4 222.8 224.4C281.6 224.5 305.3 213.4 310.9 210.3Z" fill="#FF8330"/>
<path d="M275 201.1C271.7 197.5 250.9 194.7 225.8 194.7C199.6 194.7 178.2 197.7 176.3 201.5C177.2 199.3 183.2 191.7 225.8 191.7C265 191.7 273.3 198.5 275 201.1Z" fill="#FF8330"/>
<path d="M122.9 195.1L105.4 69.9001C105.2 68.6001 104.1 67.6001 102.7 67.6001H79.1C77.5 67.6001 76.2 69.0001 76.4 70.7001L82.3 118C82.5 119.9 81.1 121.5 79.2 121.5H52.2C50.5 121.5 49.1 120.2 49 118.5L46.8 70.3001C46.7 68.8001 45.5 67.7001 44.1 67.7001H22C20.4 67.7001 19.2 69.0001 19.3 70.5001L22.3 152.9C22.4 155.5 24.6 157.6 27.2 157.6H87.3L92 195.3H122.9V195.1Z" fill="#301402"/>
<path d="M453 195.1L435.5 69.9001C435.3 68.6001 434.2 67.6001 432.8 67.6001H409.2C407.6 67.6001 406.3 69.0001 406.5 70.7001L412.4 118C412.6 119.9 411.2 121.5 409.3 121.5H382.3C380.6 121.5 379.2 120.2 379.1 118.5L376.9 70.3001C376.8 68.8001 375.6 67.7001 374.2 67.7001H352.2C350.6 67.7001 349.4 69.0001 349.5 70.5001L352.5 152.9C352.6 155.5 354.8 157.6 357.4 157.6H417.5L422.2 195.3H453V195.1Z" fill="#301402"/>
<path d="M104.7 71.2002L91.5001 220.8C91.3001 223.6 88.9002 225.8 86.1002 225.8H66.3001C63.0001 225.8 60.5001 222.9 60.9001 219.7L69.2001 149.6L9.90015 150.6C6.60015 150.6 4.10014 147.7 4.70014 144.5L4.90015 143.2L18.5001 70.3002C18.9001 68.3002 20.6001 66.8002 22.7001 66.8002H41.6001C44.2001 66.8002 46.2001 69.2002 45.8001 71.8002L37.7001 117.8C37.4001 119.7 38.8001 121.3 40.7001 121.3H69.0001L75.6002 70.2002C75.9002 68.2002 77.6002 66.7002 79.6002 66.7002H100.7C103 66.8002 104.9 68.9002 104.7 71.2002Z" fill="#FFB583"/>
<path d="M69.6001 143.2L69.1001 149.6L9.80005 150.6C6.50005 150.6 4.00004 147.7 4.60004 144.5L4.80005 143.2H69.6001V143.2Z" fill="#FF8330"/>
<path d="M104.7 71.2003L91.5001 220.8C91.3001 223.6 88.9001 225.8 86.1001 225.8H83.1001L98.8001 66.8003H100.7C103 66.8003 104.9 68.9003 104.7 71.2003Z" fill="#FF8330"/>
<path d="M37.6 117.9C37.3 119.8 38.7 121.4 40.6 121.4H34.8C32.7 121.4 31 119.5 31.4 117.4L40.3 66.9004H41.6C44.2 66.9004 46.2 69.3004 45.8 71.9004L37.6 117.9Z" fill="#FF8330"/>
<path d="M434.7 71.2002L421.5 220.8C421.3 223.6 418.9 225.8 416.1 225.8H396.3C393 225.8 390.5 222.9 390.9 219.7L399.2 149.6L339.9 150.6C336.6 150.6 334.1 147.7 334.7 144.5L334.9 143.2L348.5 70.3002C348.9 68.3002 350.6 66.8002 352.7 66.8002H371.6C374.2 66.8002 376.2 69.2002 375.8 71.8002L367.7 117.8C367.4 119.7 368.8 121.3 370.7 121.3H399L405.6 70.2002C405.9 68.2002 407.6 66.7002 409.6 66.7002H430.7C433.1 66.8002 435 68.9002 434.7 71.2002Z" fill="#FFB583"/>
<path d="M399.7 143.2L399.2 149.6L339.9 150.6C336.6 150.6 334.1 147.7 334.7 144.5L334.9 143.2H399.7V143.2Z" fill="#FF8330"/>
<path d="M434.7 71.2003L421.5 220.8C421.3 223.6 418.9 225.8 416.1 225.8H413.1L428.8 66.8003H430.7C433.1 66.8003 435 68.9003 434.7 71.2003Z" fill="#FF8330"/>
<path d="M367.7 117.9C367.4 119.8 368.8 121.4 370.7 121.4H364.9C362.8 121.4 361.1 119.5 361.5 117.4L370.4 66.9004H371.7C374.3 66.9004 376.3 69.3004 375.9 71.9004L367.7 117.9Z" fill="#FF8330"/>
<path opacity="0.28" d="M186.3 101.7L165.8 205.7C164.7 211.3 168.3 216.6 173.2 216.6H281.8C286.6 216.6 290.2 211.5 289.3 206.1L272.5 102.1C271.8 97.9 268.7 94.9 265 94.9H193.8C190.2 94.8 187.1 97.7 186.3 101.7Z" fill="#FFD8BE"/>
<path d="M278.9 108.2L288.8 141.1C289 141.8 289.7 142.2 290.4 141.9C290.9 141.7 291.3 141.1 291.1 140.5L284.6 106.8C284.2 105 282.2 104 280.5 104.7C279.2 105.3 278.5 106.7 278.9 108.2Z" fill="#FEC272"/>
<path d="M260.2 120.1L266.6 145.5C266.7 146 267.2 146.2 267.6 146.1C268 146 268.2 145.6 268.1 145.2L264 119.3C263.8 118.1 262.5 117.3 261.3 117.8C260.5 118.2 260 119.1 260.2 120.1Z" fill="#FEC272"/>
<path d="M176.8 111.4L168.5 136.7C168.4 137.2 167.8 137.4 167.4 137.2C167 137 166.8 136.6 166.9 136.2L172.9 110.3C173.2 109.1 174.6 108.4 175.7 108.9C176.7 109.4 177.1 110.4 176.8 111.4Z" fill="#FEC272"/>
<path d="M193.3 119.2L182.5 166.2C182.4 166.7 181.9 166.9 181.5 166.8C181.1 166.7 180.9 166.3 181 165.9L189.5 118.4C189.7 117.2 191 116.4 192.2 116.9C193.1 117.2 193.6 118.2 193.3 119.2Z" fill="#FEC272"/>
<path d="M216.2 124.7L211 158.8C210.9 159.3 210.4 159.6 210 159.4C209.6 159.3 209.4 158.9 209.4 158.5L212.2 124.1C212.4 122.9 213.6 122.1 214.8 122.5C215.8 122.7 216.4 123.7 216.2 124.7Z" fill="#FEC272"/>
<path d="M243 124L244.3 178.1C244.3 178.6 243.9 178.9 243.4 178.9C243 178.8 242.7 178.5 242.7 178.1L239 124C239 122.7 240.1 121.8 241.3 122C242.3 122.2 243 123.1 243 124Z" fill="#FEC272"/>
<path d="M139.1 74.9001C138 73.6001 137.2 72.3001 136.6 71.0001L134.3 55.6001L139.6 60.5001L139.1 74.9001Z" fill="#738DE0"/>
<path d="M288.3 80.1001C288.3 80.1001 285 87.0001 277.8 94.7001C268.8 104.3 253.6 115.2 231 115.2C215.1 115.2 203.3 109.9 194.9 103.5C181.7 93.5001 176.5 80.7001 176.5 80.7001L288.3 80.1001Z" fill="#273D7A"/>
<path d="M288.3 80.1001C288.3 80.1001 285 87.0001 277.8 94.7001C270.1 97.7001 260.6 100.2 248.8 101.8C225.6 104.9 207.5 104.7 194.9 103.5C181.7 93.5001 176.5 80.7001 176.5 80.7001L288.3 80.1001Z" fill="#072359"/>
<path d="M323.5 54.9998C323.5 54.9998 322.9 61.2998 320.9 69.0998C320.6 70.1998 320.1 71.4998 319.3 72.6998C317.2 76.0998 313.2 79.7998 306.7 83.2998C305.6 83.8998 304.3 84.4998 303 85.0998C302 85.5998 301 85.9998 299.9 86.4998C298.4 87.0998 296.9 87.6998 295.3 88.2998C289.7 90.2998 283.1 91.9998 275.3 93.5998C274.7 93.6998 274.2 93.7998 273.6 93.8998C272.1 94.1998 270.3 94.3998 268.4 94.5998C260.4 95.4998 249.8 96.0998 238.5 96.2998C236.4 96.2998 234.3 96.3998 232.2 96.3998C221.5 96.4998 210.7 96.1998 201.3 95.6998C199.3 95.5998 197.3 95.4998 195.5 95.2998C190 94.8998 185.2 94.2998 181.7 93.5998C176.6 92.5998 172 91.4998 167.9 90.2998C166.2 89.7998 164.6 89.2998 163 88.7998C150.6 84.6998 143.1 79.6998 139.2 75.0998C138.6 74.3998 138.1 73.7998 137.7 73.0998C137.3 72.4998 136.9 71.7998 136.7 71.1998C136.4 70.4998 136.1 69.8998 136 69.1998C135.1 65.4998 134.4 61.6998 134.1 58.7998C133.7 55.4998 133.6 53.2998 133.6 53.2998L228.6 60.3998L323.6 55.0998L323.5 54.9998Z" fill="#99ADF9"/>
<path d="M323.4 54.8C323.4 55.5 322.9 56.4 322 57.5C319.5 60.4 313.5 64.7 303.3 68.6C302 69.1 300.6 69.6 299.1 70.1C298.4 70.3 297.7 70.6 297 70.8C295.5 71.3 293.9 71.8 292.2 72.2C286.5 73.8 279.9 75.3 272.3 76.4C270.5 76.7 268.6 77 266.6 77.2C258.2 78.3 248.8 79 238.3 79.2C236.3 79.2 234.2 79.3 232.1 79.3H232C221.3 79.3 211.4 78.8 202.5 78C200.5 77.8 198.5 77.6 196.6 77.4C186.8 76.3 178.1 74.7 170.6 72.9C168.9 72.5 167.2 72 165.6 71.6C150.7 67.5 140.9 62.4 136.4 58.2C135.5 57.4 134.8 56.5 134.3 55.8C133.7 54.9 133.4 54.1 133.4 53.3C133.4 46.2 161.4 31.1 232.5 31.1C303.6 31 323.4 49.9 323.4 54.8Z" fill="#273D7A"/>
<path d="M191.5 39.1998L139.5 60.4998C137.5 59.1998 134.7 56.3998 134.2 55.5998L189.8 38.2998L191.5 39.1998Z" fill="#072359"/>
<path d="M323.4 54.8999C323.4 55.4999 322.9 56.3999 322 57.4999L268.6 39.1999L270.3 38.3999L323.4 54.8999Z" fill="#072359"/>
<path d="M200.3 44.7001L170.6 72.8001C168.9 72.4001 167.2 71.9001 165.6 71.5001L198.5 44.6001L200.3 44.7001Z" fill="#072359"/>
<path d="M216.6 47.9999L202.5 77.9999C200.5 77.7999 198.5 77.5999 196.6 77.3999L214.8 47.8999L216.6 47.9999Z" fill="#072359"/>
<path d="M272.4 76.4999C270.6 76.7999 268.6 77.0999 266.7 77.2999L252.9 47.9999L254.8 47.8999L272.4 76.4999Z" fill="#072359"/>
<path d="M238.3 79.2998C236.3 79.2998 234.2 79.3998 232.1 79.3998H232L234.4 49.8998L236.3 49.7998L238.3 79.2998Z" fill="#072359"/>
<path d="M303.2 68.6001C301.9 69.1001 300.5 69.6001 299 70.1001L263.1 44.7001L265 44.6001L303.2 68.6001Z" fill="#072359"/>
<path d="M238.4 96.1002C236.3 96.1002 234.2 96.2002 232.1 96.2002V79.3002L238.3 79.2002L238.4 96.1002Z" fill="#738DE0"/>
<path d="M273.4 93.6999C271.8 93.9999 270.1 94.1999 268.2 94.3999L266.6 77.1999L272.3 76.3999L273.4 93.6999Z" fill="#738DE0"/>
<path d="M306.6 83.2001C305.5 83.8001 304.2 84.4001 302.9 85.0001L299.1 70.0001L303.2 68.6001L306.6 83.2001Z" fill="#738DE0"/>
<path d="M202.5 77.9999L201.3 95.4999C199.3 95.3999 197.3 95.2999 195.5 95.0999L196.7 77.3999L202.5 77.9999Z" fill="#738DE0"/>
<path d="M170.6 72.8L167.8 90.1C166.1 89.6 164.5 89.1 162.9 88.6L165.5 71.5L170.6 72.8Z" fill="#738DE0"/>
<path d="M139.6 60.7002L137.6 73.0002C137.2 72.4002 136.8 71.7002 136.6 71.1002C136.3 70.4002 136 69.8002 135.9 69.1002C135 65.4002 134.3 61.6002 134 58.7002L134.3 55.7002C134.3 55.7002 136 57.7002 136.7 58.4002C137.3 59.0002 139.6 60.7002 139.6 60.7002Z" fill="#738DE0"/>
<path d="M227.8 61.8001C257.237 61.8001 281.1 55.0396 281.1 46.7001C281.1 38.3606 257.237 31.6001 227.8 31.6001C198.363 31.6001 174.5 38.3606 174.5 46.7001C174.5 55.0396 198.363 61.8001 227.8 61.8001Z" fill="#072359"/>
<path d="M276.5 44.2999C276.5 44.2999 272.6 48.6999 263 52.4999C255.9 55.2999 245.7 57.6999 231.7 57.6999C224 57.6999 217.3 56.9999 211.7 55.8999C193 52.2999 184.9 44.4999 184.9 44.4999C184.9 44.4999 189 14.0999 214.6 3.79991C219.8 1.69991 226 0.399902 233.2 0.399902C268.4 0.399902 276.5 44.2999 276.5 44.2999Z" fill="#99ADF9"/>
<path d="M211.7 55.8998C193 52.2998 184.9 44.4998 184.9 44.4998C184.9 44.4998 189 14.0998 214.6 3.7998C209.6 7.9998 204.7 16.3998 203.9 30.0998C203.1 40.2998 205.5 48.7998 211.7 55.8998Z" fill="#7A97F4"/>
<path d="M276.5 44.2999C276.5 44.2999 272.6 48.6999 263 52.4999C261.5 46.8999 259.2 41.8999 259.2 41.8999C259.2 41.8999 249.8 43.8999 245.6 34.9999C241.4 26.0999 251.5 19.6999 251.5 19.6999C251.5 19.6999 249.1 11.9999 236.7 6.99991C224.3 1.99991 214.4 3.79991 214.4 3.79991C219.6 1.69991 225.8 0.399902 233 0.399902C268.4 0.399902 276.5 44.2999 276.5 44.2999Z" fill="#C2D1FF"/>
<path d="M236.2 25.4998C237.691 25.4998 238.9 24.3357 238.9 22.8998C238.9 21.4639 237.691 20.2998 236.2 20.2998C234.709 20.2998 233.5 21.4639 233.5 22.8998C233.5 24.3357 234.709 25.4998 236.2 25.4998Z" fill="#C2D1FF"/>
<path d="M226.8 28C227.96 28 228.9 27.1046 228.9 26C228.9 24.8954 227.96 24 226.8 24C225.64 24 224.7 24.8954 224.7 26C224.7 27.1046 225.64 28 226.8 28Z" fill="#C2D1FF"/>
<path d="M233.1 41.5C235.364 41.5 237.2 39.7091 237.2 37.5C237.2 35.2909 235.364 33.5 233.1 33.5C230.836 33.5 229 35.2909 229 37.5C229 39.7091 230.836 41.5 233.1 41.5Z" fill="#C2D1FF"/>
</svg>
