<svg width="423" height="407" viewBox="0 0 423 407" fill="none" xmlns="http://www.w3.org/2000/svg">
    <path d="M203.4 385.5C202.2 385.8 201 385.9 199.8 385.9C199.6 385.9 199.4 385.9 199.2 385.9C190.8 385.6 183 379 178.2 370.2C156.9 331 151.1 306.8 143.4 280.3C141.5 273.7 142 267 144.8 262.2C147 258.5 150.5 255.8 155.3 255.3C155.9 255.2 156.4 255.2 157 255.2C165.5 255.2 174.4 262 177.9 270.8L214.4 360.2C219 371.5 214 383.1 203.4 385.5Z" fill="#FFB96C"/>
    <path d="M199.2 385.9C190.8 385.6 183 379 178.2 370.2C156.9 331 151.1 306.8 143.4 280.3C141.5 273.7 142 267 144.8 262.2C154.3 285.2 185.5 360.7 195.1 378.3C196.6 381.1 198 383.6 199.2 385.9Z" fill="#FCAF63"/>
    <path d="M249.2 372C248.3 374.3 247.1 376.1 245.9 377C238.7 382.7 231.6 384 219.7 386.6C207.8 389.2 195.5 388.6 189.8 383.2C187.9 381.4 186.5 379.4 185.7 377.3C183.2 371.3 185.4 365 192.5 362.3C196.7 360.7 234.9 351.7 241.2 352.9C252.1 355 251.9 365.3 249.2 372Z" fill="#FFB96C"/>
    <path d="M249.2 372C248.3 374.3 247.1 376.1 245.9 377C238.7 382.7 231.6 384 219.7 386.6C207.8 389.2 195.5 388.6 189.8 383.2C187.9 381.4 186.5 379.4 185.7 377.3C188.9 378.2 195.3 379.4 206.2 378.2C215.4 377.2 234.3 374.3 249.2 372Z" fill="#FCAF63"/>
    <path d="M239.2 353.6C227.3 357.6 228.6 365.5 230.4 373.2C232.2 380.9 247 400.7 251.5 401.7C256 402.7 256.3 400.9 255.1 397.2C253.9 393.5 245.4 380.6 245.4 380.6C245.4 380.6 254.8 393.4 258.7 397.2C262.6 401 265.9 400.7 265.8 396.5C265.6 392.3 256.3 378.2 256.3 378.2C256.3 378.2 264.5 389 267.9 392.7C271.3 396.4 275.8 395.8 274.2 390.8C272.7 385.8 265.9 374.9 265.9 374.9C265.9 374.9 272.5 385.9 276.9 387C281.3 388.1 278.6 381.5 273.9 373.1C269.3 364.5 254 348.6 239.2 353.6Z" fill="#FEA691"/>
    <path d="M229.2 364.6C229.2 364.6 226.7 374.4 228.3 383C229.9 391.6 232.6 393.3 234.4 393.7C236.2 394.1 236.8 391.8 235.9 388.1C235 384.4 237.4 377.1 237.4 377.1C237.4 377.1 234.8 362.4 229.2 364.6Z" fill="#FEA691"/>
    <path d="M182.1 396H81.2001C81.2001 396 67.3001 298.8 76.1001 274.9C78.6001 268.1 81.9001 262.6 85.7001 258C95.2001 246.4 107.4 241.1 115.7 239C126.6 236.2 136.1 236.1 144.3 238.1C166.1 243.3 178.2 263.2 182.1 284.9C187.5 314.8 182.1 396 182.1 396Z" fill="#FEC272"/>
    <path d="M116.6 258.5C103.4 261.9 91.3001 261.5 85.6001 258C95.1001 246.4 107.3 241.1 115.6 239C126.5 236.2 136 236.1 144.2 238.1C146 244.9 133.6 254.1 116.6 258.5Z" fill="#F9B35F"/>
    <path d="M108 281.3C108 282.9 107.9 284.5 107.6 286C103.5 312.6 79.9001 376.6 79.9001 376.6C78.2001 381.7 74.6001 385.5 70.2001 387.6C65.8001 389.6 60.7001 390 55.8001 388.1C48.2001 385.1 44.6001 377.9 44.6001 370C44.6001 368.3 44.8001 366.6 45.1001 364.9C52.0001 327.6 64.3001 296.7 74.4001 274.9C78.8001 265.3 89.6001 259.3 99.1001 264.1C102 265.5 104 267.8 105.5 270.4C107.3 273.6 108 277.4 108 281.3Z" fill="#FFCD92"/>
    <path d="M108 281.3C108 282.9 107.9 284.5 107.6 286C103.5 312.6 79.9002 376.6 79.9002 376.6C78.2002 381.7 74.6002 385.5 70.2002 387.6L105.4 270.3C107.3 273.6 108 277.4 108 281.3Z" fill="#FCB765"/>
    <path d="M139.5 387.4C137.3 392.8 130.1 393 130.1 393C130.1 393 109.9 394.2 92.4001 394.2C74.9001 394.2 57.7001 394.2 50.7001 386.3C49.3001 384.7 48.2001 382.9 47.6001 381C45.0001 373.7 48.3001 365 58.7001 360.6C66.2001 357.4 74.8001 358.5 84.2001 359.4C93.6001 360.3 111.7 364.5 122.2 367.3C132.8 370 139.1 372.7 140 382.7C140.3 384.6 140 386.1 139.5 387.4Z" fill="#FFCD92"/>
    <path d="M139.5 387.4C137.3 392.8 130.1 393 130.1 393C130.1 393 109.9 394.2 92.4001 394.2C74.9001 394.2 57.7001 394.199 50.7001 386.299C49.3001 384.699 48.2001 382.9 47.6001 381C55.4001 383.4 65.9001 386.2 74.3001 386.9C98.0001 388.9 129.4 387.9 139.5 387.4Z" fill="#FCB765"/>
    <path d="M160.6 371.3C160.6 372.9 160.4 374.6 160 376.4C157.9 385 146.8 391.6 129.9 392.5C122.4 392.9 117.3 392.9 113.9 392.1C109.5 391 107.8 388.4 107.4 383C106.9 376.1 112.1 369.8 116 367.1C127.7 359.2 138.6 358.6 148.1 359.5C156.6 360.4 160.5 365.1 160.6 371.3Z" fill="#FEA691"/>
    <path d="M160.6 371.3C160.6 372.9 160.4 374.6 160 376.4C157.9 385 146.8 391.6 129.9 392.5C122.4 392.9 117.3 392.9 113.9 392.1C113.5 391.1 113.2 389.9 113.1 388.4C112.6 382.5 117.5 377 121.3 374.7C132.4 367.9 142.8 367.3 151.8 368.2C155.8 368.5 158.7 369.6 160.6 371.3Z" fill="#FC8172"/>
    <path d="M173.7 388.7C173.7 389.8 173.5 390.8 173.2 391.9H118.2C117.9 390.9 117.7 389.8 117.7 388.7C117.7 379.1 130.2 371.3 145.7 371.3C161.2 371.3 173.7 379.1 173.7 388.7Z" fill="#C7DCF9"/>
    <path opacity="0.55" d="M172.5 390.2C172.5 390.8 172.4 391.3 172.1 391.9H121.8C121.5 391.3 121.4 390.8 121.4 390.2C121.4 385.1 132.8 380.9 146.9 380.9C161.1 380.9 172.5 385.1 172.5 390.2Z" fill="#C7DCF9"/>
    <path d="M161.6 356.6C165.2 357 167.7 359.3 169.1 364.1C170.5 368.9 170.8 376 169.3 378.5C167.8 381 165 382.1 161.9 379.6C158.8 377.1 157.1 370.1 156.1 366.6C154.9 362 153.5 355.8 161.6 356.6Z" fill="#FEA691"/>
    <path d="M148.2 354.3C152.1 354.7 153.7 358 155.2 363C156.7 368 157 375.6 155.4 378.3C153.8 380.9 150.8 382.1 147.5 379.5C144.2 376.9 142.3 369.4 141.3 365.7C140 360.8 139.4 353.5 148.2 354.3Z" fill="#FEA691"/>
    <path d="M152.1 380.8C150.7 381.1 149.1 380.8 147.5 379.4C144.2 376.8 142.4 369.3 141.3 365.6C140.2 361.6 139.6 355.9 144.3 354.5C143.4 357.2 143.9 360.9 144.6 363.7C145.6 368 147.5 376.7 150.8 379.7C151.3 380.2 151.7 380.6 152.1 380.8Z" fill="#FF8D76"/>
    <path d="M133.6 356.6C137.5 357 140.1 359.5 141.6 364.5C143.1 369.5 143.4 377.1 141.8 379.8C140.2 382.4 137.2 383.6 133.9 381C130.6 378.4 128.7 370.9 127.7 367.2C126.4 362.3 124.9 355.7 133.6 356.6Z" fill="#FEA691"/>
    <path d="M137.5 382.4C136.4 382.4 135.2 381.9 134 380.9C130.7 378.3 128.9 370.8 127.8 367.1C126.8 363.3 125.6 358.5 129.3 356.9C129 359.4 129.7 362.6 130.4 365.2C131.6 369.7 133.7 378.9 137.4 382.2C137.4 382.4 137.4 382.4 137.5 382.4Z" fill="#FF8D76"/>
    <path d="M120.5 359.4C123.9 358.4 126.5 362.1 127.8 366.7C129.1 371.3 129.5 378.3 128 380.7C126.6 383.1 123.8 384.2 120.8 381.8C117.8 379.4 117 374.8 116.1 371.4C114.9 367 113.9 361.4 120.5 359.4Z" fill="#FEA691"/>
    <path d="M124.2 383.2C123.1 383.2 122 382.8 120.8 381.8C117.8 379.4 117 374.8 116.1 371.4C115 367.6 114.2 362.9 118.2 360.4C117.9 363.1 118.4 366 118.9 368.6C119.8 373.2 120.5 379.5 123.9 382.9C124 383 124.1 383.1 124.2 383.2Z" fill="#FF8D76"/>
    <path d="M165.8 380.9C164.6 381 163.3 380.6 162 379.5C158.9 377 157.2 370 156.2 366.5C155.2 362.8 154 358 158 356.8C158 359 158.5 361.5 159 363.7C160 368.2 161.9 377.2 165.1 380.4C165.4 380.6 165.6 380.8 165.8 380.9Z" fill="#FF8D76"/>
    <path d="M117.8 135C117.8 135 127.1 131.2 133.4 143.8C139.7 156.5 132.9 164.6 132.9 164.6C132.9 164.6 126.7 146.3 117.8 135Z" fill="#FF8D76"/>
    <path d="M124.2 250.9C115.4 255 109.3 249.3 109.3 249.3L103.8 237.4L93.8999 216C108.8 212.8 121.8 210.3 121.8 210.3L124.1 219.8L128.4 237.5C128.2 237.6 133 246.9 124.2 250.9Z" fill="#FEA691"/>
    <path d="M124 219.9C122.7 221.8 121.3 223.8 119.6 225.7C115.3 230.8 109.1 234.7 103.7 237.4L93.8 216C108.7 212.8 121.7 210.3 121.7 210.3L124 219.9Z" fill="#FF8D76"/>
    <path d="M115.84 218.291C138.115 204.752 142.754 171.701 126.203 144.471C109.651 117.241 78.176 106.142 55.901 119.682C33.626 133.222 28.9864 166.272 45.538 193.502C62.0896 220.733 93.5648 231.831 115.84 218.291Z" fill="#FEA691"/>
    <path d="M126.4 208.8C123.5 212.5 119.9 215.7 115.8 218.3C93.4999 231.8 62.0999 220.7 45.4999 193.5C29.0999 166.6 33.4999 133.9 55.1999 120.1C42.5999 136.3 41.9999 162.3 55.4999 184.4C71.9999 211.6 103.5 222.7 125.8 209.2C126 209.1 126.2 209 126.4 208.8Z" fill="#FF8D76"/>
    <path d="M66.1999 209.5C66.1999 209.5 49.1999 196.1 44.8999 172.1C40.5999 148.1 45.3999 138.4 65.0999 126.8C84.7999 115.3 99.4999 119.4 99.4999 119.4C99.4999 119.4 85.4999 108.9 62.5999 112.8C39.6999 116.6 16.3999 138.4 21.1999 171.2C26.1999 206.2 46.9999 216.5 66.1999 209.5Z" fill="#3C1901"/>
    <path d="M86.7999 146.8C84.0999 148.7 87.9 158.8 96.1 166.3C104.3 173.8 112.2 169.9 112.4 162.5C112.6 154.9 96.0999 140.2 86.7999 146.8Z" fill="#F76F59"/>
    <path d="M46.4999 191.4C46.4999 191.4 30.4999 207.1 44.8999 220.8C58.6999 233.9 76.0999 216.3 76.0999 216.3C76.0999 216.3 51.6999 203.2 46.4999 191.4Z" fill="#FF8D76"/>
    <path d="M48.4 200.5C48.4 200.5 39.4 209.3 47.5 217.1C55.3 224.5 65.1 214.6 65.1 214.6C65.1 214.6 51.3 207.2 48.4 200.5Z" fill="#F76F59"/>
    <path d="M97.4999 118.1C97.4999 118.1 99.1999 87.9001 81.9999 75.6001C62.5999 61.8001 51.6999 81.7001 58.0999 98C60.8999 105.3 63.8999 109.7 66.2999 112.3C68.4999 114.7 71.4999 116.1 74.6999 116.3L97.4999 118.1Z" fill="#3C1901"/>
    <path d="M31.7 92.6002C16.4 104.8 29.6 122.3 35.9 127C38.6 129 41.5 130.6 44 131.8C47.4 133.4 51.4 133.2 54.6 131.2L76.2 117.5C76.2 117.6 52 76.5002 31.7 92.6002Z" fill="#3C1901"/>
    <path d="M67.9999 72.3C63.1999 72.9 68.4999 82.1 75.4999 83.3C82.4999 84.5 80.2999 70.8 67.9999 72.3Z" fill="#803908"/>
    <path d="M37.6999 92.7999C34.8999 95.9999 42.1999 100.1 48.0999 98.0999C54.0999 96.1999 43.8999 85.7999 37.6999 92.7999Z" fill="#803908"/>
    <path d="M126.7 185C126.2 186 125.5 186.9 124.5 187.7C120.8 190.6 118 194.8 116 199.2C114.2 203.1 109.6 207.7 105.3 204.4C104.8 204 104.3 203.6 103.9 203C99.3999 197.3 101.1 182.6 108.1 176.1C113.5 171.1 120.2 172.4 123.6 175.2C126.9 177.7 128.3 181.7 126.7 185Z" fill="#F76F59"/>
    <path d="M126.7 185C126.2 186 125.5 186.9 124.5 187.7C120.8 190.6 118 194.8 116 199.2C114.2 203.1 109.6 207.7 105.3 204.4C105.3 198.1 107.6 190.7 112 186.7C117.1 182.1 123.1 182.7 126.7 185Z" fill="#FF6EA9"/>
    <path d="M64.7999 167.7C61.5999 167.7 59.0999 166.7 58.8999 166.6C57.5999 166.1 56.9999 164.6 57.4999 163.3C57.9999 162 59.4999 161.4 60.7999 161.9C60.8999 161.9 66.3999 164.1 69.3999 160.8C73.2999 156.7 69.1999 151.4 69.0999 151.2C68.1999 150.1 68.3999 148.5 69.4999 147.6C70.5999 146.7 72.1999 146.9 73.0999 148C75.4999 151.1 78.5999 158.4 73.0999 164.2C70.5999 166.9 67.4999 167.7 64.7999 167.7Z" fill="#1C3177"/>
    <path d="M102 142.6C96.9001 142.6 92.6001 138.8 92.3001 138.6C91.2001 137.7 91.2001 136 92.1001 135C93.0001 134 94.6001 133.9 95.7001 134.8C95.7001 134.8 100.3 138.7 103.7 137.2C105.2 136.5 104.1 133.4 104 133.3C103.5 132 104.1 130.5 105.5 130C106.8 129.5 108.3 130.1 108.8 131.4C110.3 135.1 109.9 140 105.8 141.8C104.5 142.4 103.2 142.6 102 142.6Z" fill="#1C3177"/>
    <path d="M51.4001 161.7C51.3001 161.7 51.2001 161.7 51.1001 161.7C49.7001 161.5 48.7001 160.3 48.8001 158.9C48.8001 158.6 49.5001 152.6 53.7001 146.5C57.8001 140.4 62.0001 138.3 62.2001 138.2C63.5001 137.6 65.0001 138.1 65.6001 139.4C66.2001 140.7 65.7001 142.2 64.4001 142.8C64.4001 142.8 61.2001 144.5 57.9001 149.3C54.5001 154.3 53.9001 159.3 53.9001 159.4C53.8001 160.7 52.7001 161.7 51.4001 161.7Z" fill="#1C3177"/>
    <path d="M87.9999 132.1C87.2999 132.1 86.4999 131.8 85.9999 131.2C85.0999 130.1 85.2999 128.5 86.3999 127.6C86.6999 127.4 88.9999 125.5 93.0999 124.3C97.1999 123.1 100.6 123.2 100.7 123.2C102.1 123.2 103.2 124.4 103.2 125.8C103.2 127.2 101.9 128.3 100.6 128.3C100.6 128.3 97.8999 128.2 94.5999 129.2C91.3999 130.2 89.5999 131.6 89.5999 131.6C89.0999 131.9 88.5999 132.1 87.9999 132.1Z" fill="#1C3177"/>
    <path d="M414.9 406.3H7.3001C3.3001 406.3 0.100098 403.1 0.100098 399.1C0.100098 395.1 3.3001 391.9 7.3001 391.9H414.9C418.9 391.9 422.1 395.1 422.1 399.1C422.1 403 418.9 406.3 414.9 406.3Z" fill="#FF9F5F"/>
    <path d="M414.2 406.3H66.1002C62.1002 406.3 58.9001 403.1 58.9001 399.1C58.9001 395.1 62.1002 391.9 66.1002 391.9H414.2C418.2 391.9 421.4 395.1 421.4 399.1C421.5 403 418.2 406.3 414.2 406.3Z" fill="#FF8330"/>
    <path d="M366.6 344.7H180.6C177.3 344.7 174.7 341.7 175.3 338.4L195.1 219.7C195.5 217.1 197.8 215.2 200.4 215.2H386.4C389.7 215.2 392.3 218.2 391.7 221.5L372 340.2C371.5 342.8 369.3 344.7 366.6 344.7Z" fill="#E1ECFF"/>
    <path d="M370.6 344.7H187C183.7 344.7 181.1 341.7 181.7 338.4L201.5 219.7C201.9 217.1 204.2 215.2 206.8 215.2H390.4C393.7 215.2 396.3 218.2 395.7 221.5L375.9 340.2C375.5 342.8 373.2 344.7 370.6 344.7Z" fill="#C7DCF9"/>
    <path d="M351.2 332H211C208.4 332 206.5 329.7 206.9 327.2L222 236.6C222.3 234.6 224.1 233.1 226.1 233.1H366.2C368.8 233.1 370.7 235.4 370.3 237.9L355.2 328.5C354.9 330.5 353.2 332 351.2 332Z" fill="#B7D4F7"/>
    <path d="M291.3 384.5H265.8C263.4 384.5 261.6 382.5 261.8 380.1L268.5 313.6C268.7 311.6 270.4 310 272.5 310H298C300.4 310 302.2 312 302 314.4L295.3 380.9C295.1 383 293.4 384.5 291.3 384.5Z" fill="#E1ECFF"/>
    <path d="M293.1 384.5H269.7C268.2 384.5 267 383.2 267.1 381.7L274.1 312.3C274.2 311 275.3 310 276.7 310H300.1C301.6 310 302.8 311.3 302.7 312.8L295.7 382.2C295.5 383.5 294.4 384.5 293.1 384.5Z" fill="#C7DCF9"/>
    <path d="M333.7 391.8H227.5C225.3 391.8 223.5 390 223.5 387.8V379C223.5 376.8 225.3 375 227.5 375H333.7C335.9 375 337.7 376.8 337.7 379V387.8C337.7 390 335.9 391.8 333.7 391.8Z" fill="#E1ECFF"/>
    <path d="M335.9 391.8H236C233.7 391.8 231.8 389.9 231.8 387.6V379.2C231.8 376.9 233.7 375 236 375H335.9C338.2 375 340.1 376.9 340.1 379.2V387.6C340 389.9 338.2 391.8 335.9 391.8Z" fill="#C7DCF9"/>
    <path d="M410.5 198.7C409.5 199.4 408.2 199.9 406.8 199.9H311C306.2 199.9 303.2 194.9 305.4 190.6L340.2 123.7L353 99.1001C355.4 94.6001 361.8 94.6001 364.2 99.1001L412.4 190.6C414 193.6 412.9 197 410.5 198.7Z" fill="#FF97C9"/>
    <path d="M410.5 198.7C409.5 199.4 408.2 199.9 406.8 199.9H311C306.2 199.9 303.2 194.9 305.4 190.6L340.2 123.7L329.6 180C328.7 184.8 332 189.3 336.9 189.9L410.5 198.7Z" fill="#FC72BB"/>
    <path d="M354.2 164.1L349.2 128.3C349 127.1 350 126 351.2 126H365.4C366.6 126 367.5 127.1 367.4 128.3L362.4 164.1C362.3 165.1 361.4 165.8 360.4 165.8H356.1C355.1 165.9 354.3 165.1 354.2 164.1Z" fill="white"/>
    <path d="M358.3 186.2C362.221 186.2 365.4 183.021 365.4 179.1C365.4 175.179 362.221 172 358.3 172C354.379 172 351.2 175.179 351.2 179.1C351.2 183.021 354.379 186.2 358.3 186.2Z" fill="white"/>
    <path d="M98.6999 41.2L100.5 44.9C100.7 45.4 101.2 45.7 101.7 45.7L105.7 46.3C107 46.5 107.5 48 106.5 48.9L103.6 51.7C103.2 52.1 103.1 52.6 103.2 53.1L103.9 57.1C104.1 58.3 102.8 59.3 101.7 58.7L98.0999 56.8C97.6999 56.6 97.0999 56.6 96.6999 56.8L93.0999 58.7C91.9999 59.3 90.6999 58.3 90.8999 57.1L91.5999 53.1C91.6999 52.6 91.4999 52.1 91.1999 51.7L88.2999 48.9C87.3999 48 87.8999 46.5 89.0999 46.3L93.0999 45.7C93.5999 45.6 93.9999 45.3 94.2999 44.9L96.0999 41.2C96.4999 40.1 98.0999 40.1 98.6999 41.2Z" fill="#FEC272"/>
    <path d="M293.3 70.2C293.3 84 289.3 96.8 282.4 107.7C279.9 113.5 267.3 138 224.5 157.6C179.6 178.2 139.8 163.5 139.8 163.5C139.8 163.5 164.3 147.4 159.7 120.5C156.1 99.3 153.6 84.1 153.8 71.3C153.8 70.9 153.8 70.6 153.8 70.2C153.8 31.7 185 0.5 223.5 0.5C262 0.5 293.3 31.7 293.3 70.2Z" fill="#F0F6FF"/>
    <path d="M147.1 116.5C143.4 107 139.7 107.4 137.2 109.2C134.9 110.9 134.4 116.8 137.2 122.4C140 128 142.8 127.6 145.6 126.1C148.4 124.6 148.8 120.9 147.1 116.5Z" fill="#C7DCF9"/>
    <path d="M270.6 137.5C255.2 145.7 256.6 152 260.2 155.8C263.6 159.4 273.7 159 282.6 153.2C291.5 147.4 290.4 142.7 287.3 138.2C284.2 133.7 277.7 133.6 270.6 137.5Z" fill="#C7DCF9"/>
    <path d="M273.6 91.8C273.6 95.6 271.8 99.4 268.4 101.7C261 106.9 249.2 114.6 236.2 121.4C227.9 125.8 220.7 129.2 214.9 131.7C210.1 133.8 204.8 133.4 200.5 131C197.6 129.4 195.2 126.9 193.7 123.7C192.7 121.5 192.1 119.1 192.1 116.7C192.1 114.7 192.5 112.7 193.2 110.7L193.6 109.6L210.8 66L187.8 78.4C181.4 81.8 173.5 79.6 169.8 73.3C169.7 73.1 169.6 72.9 169.5 72.7C168.5 70.7 168 68.6 168 66.5C168 62.1 170.2 57.7 174.2 55.2C181.5 50.5 192.1 44.1 204.7 37.4C228.9 24.5 240.9 26.1 244.3 32.6C247.7 39.2 228.2 94.4 228.2 94.4C228.2 94.4 254.3 81.3 257.1 80.3C263.1 78 269.8 80.8 272.5 86.6C273.1 87.9 273.4 89.3 273.5 90.7C273.6 91.2 273.6 91.5 273.6 91.8Z" fill="#FF8A3C"/>
    <path d="M218.1 58.8C212.3 73.1 198.6 106 193.8 109.7L211 66.1L188 78.5C181.6 82 173.5 79.7 169.9 73.3C170.1 73.1 169.9 73.3 170.1 73.1C172.4 74.2 176.5 75.2 182.6 72.2C194 66.8 207 59.7 214.5 55.6C216.6 54.5 219 56.6 218.1 58.8Z" fill="#DD6D22"/>
    <path d="M273.6 91.8C273.6 95.6 271.8 99.4 268.4 101.7C261 106.9 249.2 114.6 236.2 121.4C227.9 125.8 220.7 129.2 214.9 131.7C210.1 133.8 204.8 133.4 200.5 131C201.4 130.8 202.3 130.6 203.1 130.3C207.6 128.8 227.9 118.1 247.8 107.4C260.8 100.4 269.6 94.8 273.5 91C273.6 91.2 273.6 91.5 273.6 91.8Z" fill="#DD6D22"/>
    <path opacity="0.49" d="M223.2 31.6001C214.2 34.6001 209.6 40.2001 220.4 39.6001C231.2 39.0001 236.9 33.5001 235 31.7001C233.1 30.0001 227.3 30.2001 223.2 31.6001Z" fill="white"/>
    <path opacity="0.49" d="M257.7 82.5999C252 84.4999 249 88.0999 255.9 87.6999C262.8 87.2999 266.4 83.7999 265.2 82.6999C263.9 81.5999 260.3 81.6999 257.7 82.5999Z" fill="white"/>
</svg>
