<svg xmlns="http://www.w3.org/2000/svg" width="207.443" height="218.507" viewBox="0 0 207.443 218.507">
  <g id="Group_14" data-name="Group 14" transform="translate(-46 -143)">
    <path id="Path_15" data-name="Path 15" d="M103.722,207.443A103.722,103.722,0,1,0,0,103.722,103.721,103.721,0,0,0,103.722,207.443Z" transform="translate(46 143)" fill="#fedfca"/>
    <g id="Group_13" data-name="Group 13" transform="translate(83.34 202.467)">
      <g id="Group_12" data-name="Group 12" transform="translate(0 0)">
        <path id="Path_16" data-name="Path 16" d="M158.249,51.6H39.315A6.915,6.915,0,0,0,32.4,58.515v145.21a6.915,6.915,0,0,0,6.915,6.915H158.249a6.914,6.914,0,0,0,6.915-6.915V58.515A6.915,6.915,0,0,0,158.249,51.6Z" transform="translate(-32.4 -51.6)" fill="#fff"/>
      </g>
    </g>
    <path id="Path_17" data-name="Path 17" d="M84.506,63.6H48.549a4.149,4.149,0,1,0,0,8.3H84.506a4.149,4.149,0,0,0,0-8.3Z" transform="translate(52.769 152.697)" fill="#ffd1b3"/>
    <path id="Path_18" data-name="Path 18" d="M84.506,114H48.549a4.149,4.149,0,1,0,0,8.3H84.506a4.149,4.149,0,0,0,0-8.3Z" transform="translate(52.769 160.381)" fill="#ffd6bc"/>
    <path id="Path_19" data-name="Path 19" d="M142.407,81.6H51.131A5.532,5.532,0,0,0,45.6,87.131v13.83a5.532,5.532,0,0,0,5.532,5.532h91.276a5.532,5.532,0,0,0,5.532-5.532V87.131A5.532,5.532,0,0,0,142.407,81.6Z" transform="translate(52.952 155.441)" fill="none" stroke="#ffaa72" stroke-width="2"/>
    <path id="Path_20" data-name="Path 20" d="M142.59,130.8H51.315a6.915,6.915,0,0,0-6.915,6.915v11.064a6.915,6.915,0,0,0,6.915,6.915H142.59a6.914,6.914,0,0,0,6.915-6.915V137.715A6.914,6.914,0,0,0,142.59,130.8Z" transform="translate(52.769 162.942)" fill="#c29577"/>
    <path id="Path_21" data-name="Path 21" d="M104.115,107.431a6.915,6.915,0,1,0-6.914-6.915A6.915,6.915,0,0,0,104.115,107.431Z" transform="translate(60.819 157.271)" fill="#fcb98d"/>
    <path id="Path_22" data-name="Path 22" d="M109.858,129.352c-1.106,0-2.14,0-3.081-.06a6.31,6.31,0,0,1-5.37-3.8l-5.835-11.53a2.49,2.49,0,0,1,.252-3.5,2.251,2.251,0,0,1,1.431-.5,2.647,2.647,0,0,1,1.987.988l2.65,3.616.04.047v-13.74a2.57,2.57,0,1,1,5.14,0v8.989a2.4,2.4,0,0,1,.115-.98,2.392,2.392,0,0,1,4.031-.848,2.383,2.383,0,0,1,.617,1.828v1.874a2.4,2.4,0,0,1,.115-.98,2.4,2.4,0,0,1,1.3-1.423,2.392,2.392,0,0,1,3.347,2.4v1.444a2.391,2.391,0,1,1,4.762,0v8.763c-.046,2.7-1.265,7.24-5.55,7.24-.311.014-2.948.166-5.947.166Z" transform="translate(60.48 157.988)" fill="#ff8d42" stroke="#fff" stroke-width="1"/>
  </g>
</svg>
